<svg xmlns="http://www.w3.org/2000/svg" xmlns:xlink="http://www.w3.org/1999/xlink" width="1854" height="1024.28" viewBox="0 0 1854 1024.28"><defs><clipPath id="a"><rect width="1854" height="1024.28" fill="none"/></clipPath><clipPath id="b"><rect width="1854" height="1024.277" transform="translate(0 0.003)" fill="none"/></clipPath><clipPath id="c"><rect width="129.962" height="129.963" transform="translate(295.019 529.021)" fill="none"/></clipPath><clipPath id="d"><rect width="129.96" height="129.963" transform="translate(1148.04 360.003)" fill="none"/></clipPath><clipPath id="e"><rect width="129.96" height="129.963" transform="translate(1472.04 387.003)" fill="none"/></clipPath><clipPath id="f"><rect width="129.963" height="129.963" transform="translate(923.037 891.003)" fill="none"/></clipPath><clipPath id="g"><rect width="129.96" height="129.963" transform="translate(1474.02 718.021)" fill="none"/></clipPath><clipPath id="h"><rect width="129.963" height="129.963" transform="translate(639 558.003)" fill="none"/></clipPath><clipPath id="i"><rect width="129.963" height="129.963" transform="translate(432 14.04)" fill="none"/></clipPath><clipPath id="j"><rect width="129.96" height="129.966" transform="translate(1724.04 18)" fill="none"/></clipPath><clipPath id="k"><rect width="129.963" height="129.966" transform="translate(774 9)" fill="none"/></clipPath><clipPath id="l"><rect width="129.962" height="129.963" transform="translate(322.019 853.021)" fill="none"/></clipPath><clipPath id="m"><rect width="169.277" height="169.277" transform="translate(144 657.003)" fill="none"/></clipPath><clipPath id="n"><rect width="169.28" height="169.277" transform="translate(1269 531.003)" fill="none"/></clipPath><clipPath id="o"><rect width="169.28" height="169.277" transform="translate(1261.72 855.003)" fill="none"/></clipPath><clipPath id="p"><rect width="169.28" height="169.277" transform="translate(927 504.003)" fill="none"/></clipPath><clipPath id="q"><rect width="169.28" height="169.28" transform="translate(1089)" fill="none"/></clipPath><clipPath id="r"><rect width="169.28" height="169.277" transform="translate(1602 180.003)" fill="none"/></clipPath><clipPath id="s"><rect width="169.277" height="169.277" transform="translate(603 171.003)" fill="none"/></clipPath><clipPath id="t"><rect width="169.277" height="169.278" transform="translate(279 145.725)" fill="none"/></clipPath><clipPath id="u"><rect width="169.277" height="169.277" transform="translate(586.723 837.003)" fill="none"/></clipPath><clipPath id="v"><rect width="126" height="126.002" transform="translate(1467 9)" fill="none"/></clipPath><clipPath id="w"><rect width="126" height="125.999" transform="translate(1125 711.004)" fill="none"/></clipPath><clipPath id="x"><rect width="125.999" height="125.999" transform="translate(0 495.003)" fill="none"/></clipPath><clipPath id="y"><rect width="125.999" height="125.999" transform="translate(792 342.004)" fill="none"/></clipPath><clipPath id="z"><rect width="125.999" height="125.999" transform="translate(819 693.003)" fill="none"/></clipPath><clipPath id="aa"><rect width="126" height="125.999" transform="translate(963 180.004)" fill="none"/></clipPath><clipPath id="ab"><rect width="126" height="125.999" transform="translate(1674 891.003)" fill="none"/></clipPath><clipPath id="ac"><rect width="125.999" height="125.999" transform="translate(459 360.003)" fill="none"/></clipPath><clipPath id="ad"><rect width="126" height="125.999" transform="translate(1683 540.004)" fill="none"/></clipPath><clipPath id="ae"><rect width="126" height="125.999" transform="translate(1296 225.004)" fill="none"/></clipPath><clipPath id="af"><rect width="125.999" height="125.999" transform="translate(468.001 684.004)" fill="none"/></clipPath><clipPath id="ag"><rect width="129.963" height="129.966" transform="translate(86.037 18)" fill="none"/></clipPath><clipPath id="ah"><rect width="125.999" height="125.999" transform="translate(162.001 297.003)" fill="none"/></clipPath><clipPath id="ai"><rect width="129.963" height="129.962" transform="translate(0 819.003)" fill="none"/></clipPath></defs><g clip-path="url(#a)"><g clip-path="url(#b)"><g style="mix-blend-mode:multiply;isolation:isolate"><g clip-path="url(#c)"><path d="M405.949,548.054a64.982,64.982,0,1,1-91.9,0,64.982,64.982,0,0,1,91.9,0" fill="#ffe900"/></g></g><g style="mix-blend-mode:multiply;isolation:isolate"><g clip-path="url(#d)"><path d="M1258.967,379.035a64.982,64.982,0,1,1-91.9,0,64.982,64.982,0,0,1,91.9,0" fill="#ffe900"/></g></g><g style="mix-blend-mode:multiply;isolation:isolate"><g clip-path="url(#e)"><path d="M1582.967,406.035a64.982,64.982,0,1,1-91.9,0,64.982,64.982,0,0,1,91.9,0" fill="#ffe900"/></g></g><g style="mix-blend-mode:multiply;isolation:isolate"><g clip-path="url(#f)"><path d="M1033.967,910.035a64.982,64.982,0,1,1-91.9,0,64.982,64.982,0,0,1,91.9,0" fill="#ffe900"/></g></g><g style="mix-blend-mode:multiply;isolation:isolate"><g clip-path="url(#g)"><path d="M1584.949,737.054a64.982,64.982,0,1,1-91.9,0,64.981,64.981,0,0,1,91.9,0" fill="#ffe900"/></g></g><g style="mix-blend-mode:multiply;isolation:isolate"><g clip-path="url(#h)"><path d="M749.93,577.035a64.982,64.982,0,1,1-91.9,0,64.982,64.982,0,0,1,91.9,0" fill="#ffe900"/></g></g><g style="mix-blend-mode:multiply;isolation:isolate"><g clip-path="url(#i)"><path d="M542.93,33.072a64.982,64.982,0,1,1-91.9,0,64.982,64.982,0,0,1,91.9,0" fill="#ffe900"/></g></g><g style="mix-blend-mode:multiply;isolation:isolate"><g clip-path="url(#j)"><path d="M1834.967,37.035a64.982,64.982,0,1,1-91.9,0,64.982,64.982,0,0,1,91.9,0" fill="#ffe900"/></g></g><g style="mix-blend-mode:multiply;isolation:isolate"><g clip-path="url(#k)"><path d="M884.93,28.035a64.982,64.982,0,1,1-91.9,0,64.982,64.982,0,0,1,91.9,0" fill="#ffe900"/></g></g><g style="mix-blend-mode:multiply;isolation:isolate"><g clip-path="url(#l)"><path d="M432.949,872.054a64.982,64.982,0,1,1-91.9,0,64.982,64.982,0,0,1,91.9,0" fill="#ffe900"/></g></g><g style="mix-blend-mode:multiply;isolation:isolate"><g clip-path="url(#m)"><path d="M308.145,754.033l-67.114,67.114a17.526,17.526,0,0,1-24.785,0l-67.113-67.114a17.527,17.527,0,0,1,0-24.784l67.113-67.114a17.526,17.526,0,0,1,24.785,0l67.114,67.114a17.527,17.527,0,0,1,0,24.784" fill="#009ddd"/></g></g><g style="mix-blend-mode:multiply;isolation:isolate"><g clip-path="url(#n)"><path d="M1433.145,628.033l-67.114,67.114a17.526,17.526,0,0,1-24.785,0l-67.114-67.114a17.527,17.527,0,0,1,0-24.784l67.114-67.114a17.526,17.526,0,0,1,24.785,0l67.114,67.114a17.525,17.525,0,0,1,0,24.784" fill="#009ddd"/></g></g><g style="mix-blend-mode:multiply;isolation:isolate"><g clip-path="url(#o)"><path d="M1425.867,952.033l-67.114,67.114a17.525,17.525,0,0,1-24.784,0l-67.114-67.114a17.525,17.525,0,0,1,0-24.784l67.114-67.114a17.525,17.525,0,0,1,24.784,0l67.114,67.114a17.525,17.525,0,0,1,0,24.784" fill="#009ddd"/></g></g><g style="mix-blend-mode:multiply;isolation:isolate"><g clip-path="url(#p)"><path d="M1091.145,601.033l-67.114,67.114a17.525,17.525,0,0,1-24.784,0l-67.114-67.114a17.525,17.525,0,0,1,0-24.784l67.114-67.114a17.527,17.527,0,0,1,24.784,0l67.114,67.114a17.525,17.525,0,0,1,0,24.784" fill="#009ddd"/></g></g><g style="mix-blend-mode:multiply;isolation:isolate"><g clip-path="url(#q)"><path d="M1253.145,97.033l-67.114,67.114a17.526,17.526,0,0,1-24.785,0l-67.114-67.114a17.527,17.527,0,0,1,0-24.784l67.114-67.114a17.526,17.526,0,0,1,24.785,0l67.114,67.114a17.525,17.525,0,0,1,0,24.784" fill="#009ddd"/></g></g><g style="mix-blend-mode:multiply;isolation:isolate"><g clip-path="url(#r)"><path d="M1766.145,277.033l-67.114,67.114a17.526,17.526,0,0,1-24.785,0l-67.114-67.114a17.527,17.527,0,0,1,0-24.784l67.114-67.114a17.526,17.526,0,0,1,24.785,0l67.114,67.114a17.525,17.525,0,0,1,0,24.784" fill="#009ddd"/></g></g><g style="mix-blend-mode:multiply;isolation:isolate"><g clip-path="url(#s)"><path d="M767.144,268.033,700.03,335.147a17.525,17.525,0,0,1-24.784,0l-67.114-67.114a17.527,17.527,0,0,1,0-24.784l67.114-67.114a17.525,17.525,0,0,1,24.784,0l67.114,67.114a17.525,17.525,0,0,1,0,24.784" fill="#009ddd"/></g></g><g style="mix-blend-mode:multiply;isolation:isolate"><g clip-path="url(#t)"><path d="M443.145,242.756,376.03,309.87a17.525,17.525,0,0,1-24.784,0l-67.113-67.114a17.525,17.525,0,0,1,0-24.784l67.113-67.114a17.525,17.525,0,0,1,24.784,0l67.115,67.114a17.527,17.527,0,0,1,0,24.784" fill="#009ddd"/></g></g><g style="mix-blend-mode:multiply;isolation:isolate"><g clip-path="url(#u)"><path d="M750.867,934.033l-67.114,67.114a17.525,17.525,0,0,1-24.784,0l-67.114-67.114a17.527,17.527,0,0,1,0-24.784l67.114-67.114a17.525,17.525,0,0,1,24.784,0l67.114,67.114a17.525,17.525,0,0,1,0,24.784" fill="#009ddd"/></g></g><g style="mix-blend-mode:multiply;isolation:isolate"><g clip-path="url(#v)"><path d="M1475.742,134.758a6.939,6.939,0,0,1-8.5-8.5l15.02-56.054,15.02-56.055a6.939,6.939,0,0,1,11.609-3.111l41.035,41.035,41.035,41.035a6.939,6.939,0,0,1-3.111,11.609l-56.054,15.02Z" fill="#dc0079"/></g></g><g style="mix-blend-mode:multiply;isolation:isolate"><g clip-path="url(#w)"><path d="M1133.742,836.759a6.939,6.939,0,0,1-8.5-8.5l15.02-56.054,15.02-56.055a6.939,6.939,0,0,1,11.609-3.111l41.035,41.035,41.035,41.035a6.939,6.939,0,0,1-3.111,11.609l-56.054,15.02Z" fill="#dc0079"/></g></g><g style="mix-blend-mode:multiply;isolation:isolate"><g clip-path="url(#x)"><path d="M117.257,495.246a6.939,6.939,0,0,1,8.5,8.5L110.736,559.8l-15.02,56.055a6.939,6.939,0,0,1-11.609,3.111L43.072,577.93,2.037,536.9a6.939,6.939,0,0,1,3.111-11.609L61.2,510.266Z" fill="#dc0079"/></g></g><g style="mix-blend-mode:multiply;isolation:isolate"><g clip-path="url(#y)"><path d="M800.742,467.759a6.938,6.938,0,0,1-8.5-8.5l15.019-56.055,15.02-56.055a6.939,6.939,0,0,1,11.609-3.111l41.035,41.035,41.035,41.035a6.939,6.939,0,0,1-3.111,11.609L856.8,452.739Z" fill="#dc0079"/></g></g><g style="mix-blend-mode:multiply;isolation:isolate"><g clip-path="url(#z)"><path d="M827.742,818.758a6.939,6.939,0,0,1-8.5-8.5l15.019-56.054,15.02-56.055a6.939,6.939,0,0,1,11.609-3.111l41.035,41.035,41.035,41.035a6.939,6.939,0,0,1-3.111,11.609L883.8,803.738Z" fill="#dc0079"/></g></g><g style="mix-blend-mode:multiply;isolation:isolate"><g clip-path="url(#aa)"><path d="M1080.257,180.247a6.939,6.939,0,0,1,8.5,8.5l-15.02,56.054-15.02,56.055a6.939,6.939,0,0,1-11.609,3.111l-41.035-41.035L965.037,221.9a6.939,6.939,0,0,1,3.111-11.609l56.054-15.02Z" fill="#dc0079"/></g></g><g style="mix-blend-mode:multiply;isolation:isolate"><g clip-path="url(#ab)"><path d="M1791.257,891.246a6.939,6.939,0,0,1,8.5,8.5l-15.02,56.054-15.02,56.055a6.939,6.939,0,0,1-11.609,3.111l-41.035-41.035L1676.037,932.9a6.939,6.939,0,0,1,3.111-11.609l56.054-15.02Z" fill="#dc0079"/></g></g><g style="mix-blend-mode:multiply;isolation:isolate"><g clip-path="url(#ac)"><path d="M576.257,360.246a6.939,6.939,0,0,1,8.5,8.5L569.736,424.8l-15.02,56.055a6.939,6.939,0,0,1-11.609,3.111L502.072,442.93l-41.035-41.035a6.939,6.939,0,0,1,3.111-11.609l56.054-15.02Z" fill="#dc0079"/></g></g><g style="mix-blend-mode:multiply;isolation:isolate"><g clip-path="url(#ad)"><path d="M1691.743,665.759a6.939,6.939,0,0,1-8.5-8.5l15.02-56.054,15.02-56.055a6.939,6.939,0,0,1,11.609-3.111l41.035,41.035,41.035,41.035a6.939,6.939,0,0,1-3.111,11.609l-56.054,15.02Z" fill="#dc0079"/></g></g><g style="mix-blend-mode:multiply;isolation:isolate"><g clip-path="url(#ae)"><path d="M1413.257,225.247a6.939,6.939,0,0,1,8.5,8.5l-15.02,56.055-15.02,56.055a6.939,6.939,0,0,1-11.609,3.111l-41.035-41.035L1298.037,266.9a6.939,6.939,0,0,1,3.111-11.609l56.054-15.02Z" fill="#dc0079"/></g></g><g style="mix-blend-mode:multiply;isolation:isolate"><g clip-path="url(#af)"><path d="M476.743,809.759a6.939,6.939,0,0,1-8.5-8.5l15.02-56.054,15.02-56.055a6.939,6.939,0,0,1,11.609-3.111l41.035,41.035,41.035,41.035a6.939,6.939,0,0,1-3.111,11.609L532.8,794.739Z" fill="#dc0079"/></g></g><g style="mix-blend-mode:multiply;isolation:isolate"><g clip-path="url(#ag)"><path d="M196.967,37.035a64.982,64.982,0,1,1-91.9,0,64.982,64.982,0,0,1,91.9,0" fill="#ffe900"/></g></g><g style="mix-blend-mode:multiply;isolation:isolate"><g clip-path="url(#ah)"><path d="M170.743,422.758a6.939,6.939,0,0,1-8.5-8.5l15.02-56.054,15.02-56.055a6.939,6.939,0,0,1,11.609-3.111l41.035,41.035,41.035,41.035a6.939,6.939,0,0,1-3.111,11.609L226.8,407.738Z" fill="#dc0079"/></g></g><g style="mix-blend-mode:multiply;isolation:isolate"><g clip-path="url(#ai)"><path d="M110.93,838.035a64.982,64.982,0,1,1-91.9,0,64.982,64.982,0,0,1,91.9,0" fill="#ffe900"/></g></g></g></g></svg>